<svg viewBox="0 0 16 16" fill="currentColor" xmlns="http://www.w3.org/2000/svg" class="e7hzhhdlaKRiyvsweF8U "><path d="M12.821 16a.5.5 0 0 1-.203-.043L8 13.901l-4.618 2.056a.501.501 0 0 1-.694-.556L3.707 10.3.147 6.732a.502.502 0 0 1 .255-.845l5.103-1.023L7.543.272c.16-.362.753-.362.914 0l2.037 4.592 5.104 1.023a.5.5 0 0 1 .255.845l-3.56 3.567L13.31 15.4a.5.5 0 0 1-.49.6zM8 12.852c.069 0 .138.015.203.043l3.938 1.754-.882-4.417a.502.502 0 0 1 .137-.452l3.09-3.094-4.441-.89a.5.5 0 0 1-.36-.288L8 1.708l-1.686 3.8a.5.5 0 0 1-.36.288l-4.44.89 3.09 3.094c.117.118.169.288.136.452l-.882 4.417 3.939-1.754A.497.497 0 0 1 8 12.852z"></path></svg>
