<svg xmlns="http://www.w3.org/2000/svg" viewBox="0 0 216 256" style="enable-background:new 0 0 216 256" xml:space="preserve">
  <path fill="red" d="M117.2 102.9c-4.6 11-17.2 16.1-28.2 11.5-11-4.6-16.1-17.2-11.5-28.2 4.6-11 17.2-16.1 28.2-11.5 11 4.6 16.1 17.2 11.5 28.2zm96.7 51.7c0 4.3-3.5 7.8-7.8 7.8h-12.7v26.8c0 20.8-16.9 37.7-37.7 37.7h-15V254h-102v-81.1C-2.8 140.2-10 80.1 22.6 38.5 40.7 15.5 68.4 2 97.7 2c43.4 0 83.4 32.6 91.7 68.4 1.9 8 4 28.8 4 28.8l19.9 52.4c.4.9.6 1.9.6 3zm-75.7-66.8 12.2-7.6-5.1-12.5-14.1 3.2c-2.7-3.8-6-7.2-9.8-9.9l3.3-14-12.5-5.2-7.7 12.2c-4.6-.8-9.4-.8-14-.1L83 41.5l-12.6 5.1 3.2 14c-3.8 2.7-7.2 6-9.9 9.8l-14-3.3-5.3 12.5 12.2 7.7c-.8 4.6-.8 9.4-.1 14L44.3 109l5.1 12.5 14-3.2c2.7 3.8 6 7.2 9.8 9.9l-3.3 14 12.5 5.2 7.7-12.2c4.6.8 9.4.8 14 .1l7.6 12.2 12.5-5.1-3.2-14.1c3.8-2.7 7.2-6 9.9-9.8l14 3.3 5.2-12.5-12.2-7.7c1.1-4.5 1.1-9.2.3-13.8z"/>
</svg>
