<svg xmlns="http://www.w3.org/2000/svg" viewBox="0 0 376.386 376.386" style="enable-background:new 0 0 376.386 376.386" xml:space="preserve">
  <path fill="red" d="M193.656 59.992H98.819c-5.818 0-10.408 4.719-10.408 10.408a10.36 10.36 0 0 0 10.408 10.408h94.836c5.818 0 10.408-4.719 10.408-10.408.001-5.818-4.718-10.408-10.407-10.408zm37.947 62.513H98.819c-5.818 0-10.408 4.719-10.408 10.408a10.36 10.36 0 0 0 10.408 10.408h132.784c5.818 0 10.408-4.719 10.408-10.408 0-5.818-4.719-10.408-10.408-10.408zm-69.624 62.449h-63.16c-5.818 0-10.408 4.719-10.408 10.408 0 5.818 4.719 10.408 10.408 10.408h63.16c5.818 0 10.408-4.719 10.408-10.408a10.4 10.4 0 0 0-10.408-10.408z"/>
  <path fill="red" d="M314.609 195.685V27.539C314.609 12.412 302.262 0 287.07 0H76.387C61.26 0 48.848 12.347 48.848 27.539v230.4c0 7.24 2.909 14.287 8.016 19.394l42.796 42.731c5.107 5.107 12.218 8.016 19.394 8.016h95.871v37.818c0 4.073 2.392 7.887 6.206 9.568 3.685 1.681 8.21 1.034 11.184-1.745l20.493-18.36 20.493 18.36c3.556 2.715 8.339 2.715 11.184 1.745 3.943-1.228 6.206-5.43 6.206-9.568v-64.194c22.109-13.059 36.848-36.849 36.848-64.129 0-15.514-4.784-29.931-12.93-41.89zm-213.01 96.84-17.002-17.002h17.002v17.002zm113.455 14.804h-92.509v-42.344c0-5.818-4.719-10.408-10.408-10.408H69.858V27.539c0-3.62 2.909-6.659 6.659-6.659h210.618c3.62 0 6.659 2.909 6.659 6.659v147.588c-11.766-7.758-25.729-12.218-40.792-12.218-41.18 0-74.667 33.487-74.667 74.667 0 27.281 14.739 51.135 36.719 64.129v5.624zm55.014 35.103h-.065l-10.02-9.051c-3.943-3.556-9.956-3.556-13.964 0l-10.02 9.051v-32.323c5.495 1.293 11.184 2.004 17.002 2.004 5.883 0 11.572-.776 17.067-2.004v32.323zm-17.196-51.135c-29.608 0-53.721-24.113-53.721-53.721s24.113-53.721 53.721-53.721 53.721 24.113 53.721 53.721-24.048 53.721-53.721 53.721z"/>
</svg>
