<svg xmlns="http://www.w3.org/2000/svg" width="200" height="200" viewBox="796 796 200 200" xml:space="preserve">
  <path fill="red" d="M975.592 916.147a48.678 48.678 0 0 0-.063-.838 81.72 81.72 0 0 0-.512-4.879c-.019-.134-.033-.267-.051-.399a78.926 78.926 0 0 0-.821-4.812c-9.935-51.256-61.3-99.688-115.939-109.157a4.234 4.234 0 0 0-4.076 6.755c14.591 18.911 2.209 46.013-15.437 63.031a.108.108 0 0 0 .019.005c-13.913 14.36-22.493 33.922-22.493 55.498 0 33.906 21.155 62.861 50.984 74.41a3.516 3.516 0 0 0 4.139-5.312c-5.168-7.279-9.087-16.828-9.087-29.047 0-41.314 33.744-67.526 33.744-67.526s33.745 26.211 33.745 67.526c0 12.219-3.92 21.768-9.088 29.047a3.516 3.516 0 0 0 4.139 5.312c29.828-11.549 50.984-40.505 50.984-74.41a80.057 80.057 0 0 0-.187-5.204z"/>
</svg>
